<?xml version="1.0" encoding="utf-8"?>
<!-- Generator: Adobe Illustrator 24.1.1, SVG Export Plug-In . SVG Version: 6.00 Build 0)  -->
<svg version="1.1" id="Layer_1" xmlns="http://www.w3.org/2000/svg" xmlns:xlink="http://www.w3.org/1999/xlink" x="0px" y="0px"
	 viewBox="0 0 800 800" style="enable-background:new 0 0 800 800;" xml:space="preserve">
<path d="M472.9,635.2c-8.9,0-17.2-4.8-21.6-12.5l-47.9-83.3c-4.4-7.7-4.4-17.3,0-25l48.2-83.1c4.5-7.7,12.7-12.5,21.7-12.5l96.1,0.2
	c8.9,0,17.2,4.8,21.6,12.5l47.9,83.3c4.4,7.7,4.4,17.3,0,25l-48.2,83.1c-4.5,7.7-12.7,12.5-21.7,12.5L472.9,635.2z"/>
<path d="M472.9,393.3c-8.9,0-17.2-4.8-21.6-12.5l-47.9-83.3c-4.4-7.7-4.4-17.3,0-25l48.2-83.1c4.5-7.7,12.7-12.5,21.7-12.5l96.1,0.2
	c8.9,0,17.2,4.8,21.6,12.5l47.9,83.3c4.4,7.7,4.4,17.3,0,25L590.6,381c-4.5,7.7-12.7,12.5-21.7,12.5L472.9,393.3z"/>
<path d="M216,393.3c-8.9,0-17.2-4.8-21.6-12.5l-47.9-83.3c-4.4-7.7-4.4-17.3,0-25l48.2-83.1c4.5-7.7,12.7-12.5,21.7-12.5l96.1,0.2
	c8.9,0,17.2,4.8,21.6,12.5l47.9,83.3c4.4,7.7,4.4,17.3,0,25L333.7,381c-4.5,7.7-12.7,12.5-21.7,12.5L216,393.3z"/>
<path d="M216,635.2c-8.9,0-17.2-4.8-21.6-12.5l-47.9-83.3c-4.4-7.7-4.4-17.3,0-25l48.2-83.1c4.5-7.7,12.7-12.5,21.7-12.5l96.1,0.2
	c8.9,0,17.2,4.8,21.6,12.5l47.9,83.3c4.4,7.7,4.4,17.3,0,25l-48.2,83.1c-4.5,7.7-12.7,12.5-21.7,12.5L216,635.2z"/>
</svg>
