<?xml version="1.0" encoding="utf-8"?>
<!-- Generator: Adobe Illustrator 24.1.1, SVG Export Plug-In . SVG Version: 6.00 Build 0)  -->
<svg version="1.1" id="Capa_1" xmlns="http://www.w3.org/2000/svg" xmlns:xlink="http://www.w3.org/1999/xlink" x="0px" y="0px"
	 viewBox="0 0 800 800" style="enable-background:new 0 0 800 800;" xml:space="preserve">
<path d="M650.4,375.5L427.5,152.6c-15.2-15.2-39.8-15.2-55,0L149.6,375.5c-11.1,11.1-14.5,27.9-8.4,42.4c6,14.5,20.2,24,35.9,24
	h30.2v166.6c0,27.8,22.5,50.3,50.3,50.3h284.7c27.8,0,50.3-22.5,50.3-50.3V441.9h30.2c15.7,0,29.9-9.5,35.9-24
	C664.8,403.3,661.5,386.6,650.4,375.5z M458.8,585.8H341.2v-66.3c0-32.5,26.3-58.8,58.8-58.8s58.8,26.3,58.8,58.8V585.8z"/>
</svg>
