<?xml version="1.0" encoding="utf-8"?>
<!-- Generator: Adobe Illustrator 24.1.1, SVG Export Plug-In . SVG Version: 6.00 Build 0)  -->
<svg version="1.1" id="Layer_1" xmlns="http://www.w3.org/2000/svg" xmlns:xlink="http://www.w3.org/1999/xlink" x="0px" y="0px"
	 viewBox="0 0 800 800" style="enable-background:new 0 0 800 800;" xml:space="preserve">
<path d="M650,575c0,6.6-2.6,13-7.3,17.7c-4.7,4.7-11,7.3-17.7,7.3H175c-6.6,0-13-2.6-17.7-7.3s-7.3-11-7.3-17.7s2.6-13,7.3-17.7
	c4.7-4.7,11-7.3,17.7-7.3h450c6.6,0,13,2.6,17.7,7.3C647.4,562,650,568.4,650,575z"/>
<path d="M522.2,350.6c-2.1,4-5.2,7.3-8.9,9.7l-175,109.5c-4,2.5-8.6,3.8-13.3,3.8c-4.2,0-8.4-1.1-12-3.3c-3.9-2.1-7.2-5.3-9.5-9.1
	c-2.3-3.8-3.5-8.2-3.5-12.6v-197c0-4.3,1.1-8.5,3.2-12.2c2.1-3.7,5.1-6.8,8.7-9.1c3.6-2.2,7.8-3.5,12-3.7s8.5,0.7,12.3,2.7
	l63.8,31.9l111.3,55.6c3.9,2,7.3,5,9.7,8.6c2.4,3.7,3.8,8,4,12.4C525.2,342.2,524.3,346.6,522.2,350.6z"/>
<path d="M175,550c-6.6,0-13,2.6-17.7,7.3c-4.7,4.7-7.3,11-7.3,17.7c0,6.6,2.6,13,7.3,17.7c4.7,4.7,11,7.3,17.7,7.3h225v-50H175z"/>
<polygon points="400,261 400,261.1 336.3,229.2 "/>
<path d="M675,100H125c-19.9,0-39,7.9-53,22c-14.1,14.1-22,33.1-22,53v450c0,19.9,7.9,39,22,53s33.1,22,53,22h550
	c19.9,0,39-7.9,53-22c14.1-14.1,22-33.1,22-53V175c0-19.9-7.9-39-22-53C714,107.9,694.9,100,675,100z M700,625
	c0,6.6-2.6,13-7.3,17.7s-11,7.3-17.7,7.3H125c-6.6,0-13-2.6-17.7-7.3c-4.7-4.7-7.3-11-7.3-17.7V175c0-6.6,2.6-13,7.3-17.7
	c4.7-4.7,11-7.3,17.7-7.3h550c6.6,0,13,2.6,17.7,7.3c4.7,4.7,7.3,11,7.3,17.7V625z"/>
</svg>
